<?xml version="1.0" encoding="iso-8859-1"?>
<!-- Uploaded to: SVG Repo, www.svgrepo.com, Generator: SVG Repo Mixer Tools -->
<svg fill="#320a60" height="800px" width="800px" version="1.1" id="Layer_1" xmlns="http://www.w3.org/2000/svg" xmlns:xlink="http://www.w3.org/1999/xlink" 
	 viewBox="0 0 512 512" xml:space="preserve">
<g>
	<g>
		<path d="M251.946,64.071c-44.981,0-81.576,36.595-81.576,81.576c0,44.981,36.595,81.576,81.576,81.576
			s81.576-36.595,81.576-81.576C333.521,100.666,296.927,64.071,251.946,64.071z M251.946,210.353
			c-32.818,0-59.989-24.565-64.138-56.271h40.643c4.658,0,8.435-3.777,8.435-8.435c0-4.658-3.776-8.435-8.435-8.435h-40.643
			c4.149-31.706,31.32-56.271,64.138-56.271s59.99,24.565,64.138,56.271H274c-4.659,0-8.435,3.777-8.435,8.435
			c0,4.658,3.775,8.435,8.435,8.435h42.084C311.935,185.787,284.764,210.353,251.946,210.353z"/>
	</g>
</g>
<g>
	<g>
		<path d="M349.023,419.351c4.659,0,8.435-3.777,8.435-8.435v-49.122c0-58.18-47.333-105.512-105.512-105.512
			c-58.18,0-105.512,47.333-105.512,105.512v139.632c0,4.658,3.777,8.435,8.435,8.435h194.155c4.659,0,8.435-3.777,8.435-8.435
			v-43.535c0-4.658-3.775-8.435-8.435-8.435s-8.435,3.776-8.435,8.435v35.1H163.303V361.793c0-48.878,39.765-88.643,88.643-88.643
			c48.878,0,88.643,39.765,88.643,88.643v49.122C340.588,415.574,344.365,419.351,349.023,419.351z"/>
	</g>
</g>
<g>
	<g>
		<path d="M48.552,2.14h-0.562c-4.658,0-8.435,3.776-8.435,8.435s3.776,8.435,8.435,8.435h0.562c4.658,0,8.435-3.777,8.435-8.435
			S53.21,2.14,48.552,2.14z"/>
	</g>
</g>
<g>
	<g>
		<path d="M297.681,2.14h-1.026c-4.659,0-8.435,3.776-8.435,8.435s3.775,8.435,8.435,8.435h1.026c4.659,0,8.435-3.777,8.435-8.435
			S302.341,2.14,297.681,2.14z"/>
	</g>
</g>
<g>
	<g>
		<path d="M131.596,2.14h-1.026c-4.658,0-8.435,3.776-8.435,8.435s3.777,8.435,8.435,8.435h1.026c4.658,0,8.435-3.777,8.435-8.435
			S136.254,2.14,131.596,2.14z"/>
	</g>
</g>
<g>
	<g>
		<path d="M380.723,2.14h-1.025c-4.659,0-8.435,3.776-8.435,8.435s3.775,8.435,8.435,8.435h1.025c4.659,0,8.435-3.777,8.435-8.435
			S385.383,2.14,380.723,2.14z"/>
	</g>
</g>
<g>
	<g>
		<path d="M214.638,2.14h-1.026c-4.658,0-8.435,3.776-8.435,8.435s3.776,8.435,8.435,8.435h1.026c4.658,0,8.435-3.777,8.435-8.435
			S219.296,2.14,214.638,2.14z"/>
	</g>
</g>
<g>
	<g>
		<path d="M463.303,2.14h-0.562c-4.659,0-8.435,3.776-8.435,8.435s3.775,8.435,8.435,8.435h0.562c4.658,0,8.435-3.777,8.435-8.435
			S467.963,2.14,463.303,2.14z"/>
	</g>
</g>
<g>
	<g>
		<path d="M457.359,135.175h-77.891c-4.659,0-8.435,3.776-8.435,8.435s3.775,8.435,8.435,8.435h69.456v30.51
			c0,4.658,3.777,8.435,8.435,8.435c4.659,0,8.435-3.777,8.435-8.435V143.61C465.794,138.952,462.019,135.175,457.359,135.175z"/>
	</g>
</g>
<g>
	<g>
		<path d="M503.565,261.069h-93.823c-4.659,0-8.435,3.777-8.435,8.435s3.775,8.435,8.435,8.435h93.823
			c4.659,0,8.435-3.776,8.435-8.435S508.225,261.069,503.565,261.069z"/>
	</g>
</g>
<g>
	<g>
		<path d="M503.565,216.813h-93.823c-4.659,0-8.435,3.776-8.435,8.435s3.775,8.435,8.435,8.435h93.823
			c4.659,0,8.435-3.776,8.435-8.435S508.225,216.813,503.565,216.813z"/>
	</g>
</g>
<g>
	<g>
		<path d="M46.396,231.059C20.813,231.059,0,251.873,0,277.455s20.814,46.396,46.396,46.396c25.583,0,46.396-20.813,46.396-46.396
			C92.792,251.872,71.979,231.059,46.396,231.059z M46.396,306.981c-16.281,0-29.526-13.245-29.526-29.526
			s13.246-29.526,29.526-29.526c16.281,0,29.526,13.246,29.526,29.526S62.677,306.981,46.396,306.981z"/>
	</g>
</g>
<g>
	<g>
		<path d="M46.396,95.883C20.813,95.883,0,116.695,0,142.278c0,25.583,20.814,46.396,46.396,46.396
			c25.582,0,46.396-20.814,46.396-46.396C92.792,116.696,71.979,95.883,46.396,95.883z M46.396,171.805
			c-16.281,0-29.526-13.245-29.526-29.526s13.246-29.526,29.526-29.526c16.281,0,29.526,13.246,29.526,29.526
			C75.922,158.559,62.677,171.805,46.396,171.805z"/>
	</g>
</g>
<g>
	<g>
		<path d="M106.604,428.323H56.122v-67.686c0-4.658-3.777-8.435-8.435-8.435c-4.658,0-8.435,3.777-8.435,8.435v76.121
			c0,4.658,3.777,8.435,8.435,8.435h58.918c4.658,0,8.435-3.776,8.435-8.435S111.263,428.323,106.604,428.323z"/>
	</g>
</g>
<g>
	<g>
		<path d="M485.275,311.001c-3.295-3.294-8.635-3.294-11.929,0l-25.439,25.44l-7.943-7.943c-3.295-3.294-8.635-3.294-11.929,0
			c-3.294,3.294-3.294,8.635,0,11.928l13.906,13.907c1.582,1.582,3.727,2.471,5.965,2.471c2.238,0,4.382-0.888,5.965-2.471
			l31.404-31.404C488.569,319.635,488.569,314.294,485.275,311.001z"/>
	</g>
</g>
<g>
	<g>
		<path d="M485.275,367.735c-3.295-3.294-8.635-3.294-11.929,0l-25.439,25.44l-7.943-7.943c-3.295-3.294-8.635-3.294-11.929,0
			c-3.295,3.294-3.295,8.635-0.001,11.928l13.907,13.907c1.648,1.646,3.807,2.471,5.965,2.471s4.318-0.823,5.965-2.471
			l31.404-31.404C488.569,376.369,488.569,371.028,485.275,367.735z"/>
	</g>
</g>
</svg>